Coordinates
version=1
nRows=7
nColumns=63
inDegrees=yes

Units are S.I. units (second, meters, Newtons, ...)
If the header above contains a line with 'inDegrees', this indicates whether rotational values are in degrees (yes) or radians (no).

endheader
time	pelvis_tilt	pelvis_list	pelvis_rotation	pelvis_tx	pelvis_ty	pelvis_tz	hip_flexion_r	hip_adduction_r	hip_rotation_r	knee_angle_r	knee_angle_r_beta	ankle_angle_r	subtalar_angle_r	mtp_angle_r	hip_flexion_l	hip_adduction_l	hip_rotation_l	knee_angle_l	knee_angle_l_beta	ankle_angle_l	subtalar_angle_l	mtp_angle_l	L5_S1_Flex_Ext	L5_S1_Lat_Bending	L5_S1_axial_rotation	L4_L5_Flex_Ext	L4_L5_Lat_Bending	L4_L5_axial_rotation	L3_L4_Flex_Ext	L3_L4_Lat_Bending	L3_L4_axial_rotation	L2_L3_Flex_Ext	L2_L3_Lat_Bending	L2_L3_axial_rotation	L1_L2_Flex_Ext	L1_L2_Lat_Bending	L1_L2_axial_rotation	L1_T12_Flex_Ext	L1_T12_Lat_Bending	L1_T12_axial_rotation	Abs_r3	Abs_r2	Abs_r1	Abs_t1	Abs_t2	neck_flexion	neck_bending	neck_rotation	arm_flex_r	arm_add_r	arm_rot_r	elbow_flex_r	pro_sup_r	wrist_flex_r	wrist_dev_r	arm_flex_l	arm_add_l	arm_rot_l	elbow_flex_l	pro_sup_l	wrist_flex_l	wrist_dev_l
      4.57446809	      0.02786366	     -3.88180129	    107.67936657	      0.05432520	      0.53705552	      0.73358721	     -0.55716007	      5.17641220	     -8.74654581	     10.18901767	      0.17783191	     36.96306745	     -2.55621414	      0.00000000	      2.38100737	     -1.40166938	     11.86226184	     13.76565705	      0.24025604	     38.77441295	     -7.93672597	      0.00000000	      0.07810775	     -0.07308890	      3.70762853	      0.14505391	     -0.09720824	      3.93935531	      0.12832323	     -0.17770835	      3.93935531	      0.08926935	     -0.17770835	      3.24417496	      0.07253086	     -0.14904288	      3.01244818	      0.04463077	     -0.11321470	      2.78072140	      0.55791586	     -0.82679624	     20.62071758	      0.00000000	      0.00000000	     17.44258799	     -6.99544369	     -2.54620276	    -61.73744271	    -54.78790863	    -66.86132002	     65.69073873	     49.79698536	      1.95861208	     28.69894024	     16.80133359	    -55.59288394	     98.53539047	      0.67240563	      1.38119010	     46.93871351	    -22.66054730
      4.59574468	     -0.16078662	     -3.15109889	    107.03232977	      0.05335747	      0.53996688	      0.73425667	     -1.34210546	      5.12366314	     -7.48422337	      9.90000416	      0.17278767	     36.89919078	     -2.63626899	      0.00000000	      1.17689429	     -1.36922536	     11.61445521	     12.95359116	      0.22608282	     38.14416909	     -8.01490171	      0.00000000	      0.07616990	     -0.02324891	      3.97318721	      0.14145513	     -0.03092105	      4.22151141	      0.12513953	     -0.05652739	      4.22151141	      0.08705458	     -0.05652739	      3.47653881	      0.07073137	     -0.04740917	      3.22821461	      0.04352348	     -0.03601256	      2.97989041	      0.54407400	     -0.26299628	     22.09767532	      0.00000000	      0.00000000	     16.73633865	     -6.36257011	     -2.72110705	    -59.44584665	    -55.54090449	    -61.91546389	     68.73249596	     51.04292144	      1.22136464	     29.72285562	     21.59857013	    -53.20033578	    111.71141858	      0.60101693	      1.34462632	     48.88825539	    -23.05119611
      4.61702128	     -0.31333809	     -2.53177739	    106.22414714	      0.05264308	      0.54258737	      0.73492607	     -1.94349625	      5.07111534	     -5.73906280	      9.63948334	      0.16824072	     36.87059226	     -3.09489665	      0.00000000	      0.12124763	     -1.35105217	     10.95863469	     12.21488484	      0.21318996	     37.50996241	     -7.77167750	      0.00000000	      0.07735320	      0.02734249	      4.23193777	      0.14365264	      0.03636551	      4.49643389	      0.12708358	      0.06648053	      4.49643389	      0.08840698	      0.06648053	      3.70294555	      0.07183019	      0.05575680	      3.43844944	      0.04419962	      0.04235352	      3.17395333	      0.55252621	      0.30930371	     23.53676832	      0.00000000	      0.00000000	     16.66185580	     -6.06805511	     -2.70684382	    -56.53459430	    -56.08489540	    -56.61452513	     71.60439035	     51.63593442	      1.05814514	     29.80723177	     25.36173971	    -50.23838691	    123.22544653	      0.55849790	      1.21988941	     51.35363050	    -23.62183405
      4.63829787	     -0.39935056	     -1.93076415	    105.55792736	      0.05180853	      0.54505793	      0.73580375	     -2.51163062	      5.06062696	     -4.33619541	      9.36013775	      0.16336522	     36.79098737	     -3.42666425	      0.00000000	     -0.83918312	     -1.39357989	     10.18997715	     11.55247242	      0.20162868	     36.82301653	     -7.29533281	      0.00000000	      0.07786603	      0.07923178	      4.46198555	      0.14460501	      0.10537827	      4.74085965	      0.12792610	      0.19264415	      4.74085965	      0.08899309	      0.19264415	      3.90423736	      0.07230640	      0.16156945	      3.62536326	      0.04449265	      0.12273003	      3.34648916	      0.55618927	      0.89628575	     24.81622505	      0.00000000	      0.00000000	     17.04341305	     -6.46677152	     -3.16705756	    -52.99458153	    -56.28218092	    -51.19395057	     73.96489763	     52.77086033	      1.75092088	     29.19126030	     28.42699980	    -46.79354209	    132.14249780	      0.54728078	      1.05635189	     55.64909656	    -23.97912483
      4.65957447	     -0.44235173	     -1.32787557	    104.78230625	      0.05106841	      0.54735212	      0.73702963	     -3.05762586	      5.07660538	     -2.94582204	      9.14272280	      0.15957062	     36.50966484	     -3.92964000	      0.00000000	     -1.74279741	     -1.46942386	      9.01974771	     10.98989678	      0.19180988	     36.21962746	     -6.60236865	      0.00000000	      0.07882600	      0.13302959	      4.74855320	      0.14638777	      0.17692935	      5.04533777	      0.12950324	      0.32344814	      5.04533777	      0.09009024	      0.32344814	      4.15498405	      0.07319782	      0.27127393	      3.85819947	      0.04504118	      0.20606283	      3.56141490	      0.56304625	      1.50485729	     26.41002831	      0.00000000	      0.00000000	     17.64063622	     -7.54489072	     -4.17736688	    -49.31414922	    -55.95078390	    -46.30097645	     75.92843180	     56.69920633	      3.77633550	     28.35010943	     31.10787789	    -42.78695884	    139.87171036	      0.52126029	      0.87374693	     60.39398805	    -24.19587110
      4.68085106	     -0.55514774	     -0.60678711	    104.30485106	      0.05023696	      0.54979572	      0.73887485	     -3.72258758	      5.03813841	     -2.45198669	      8.98560345	      0.15682837	     36.15389428	     -3.99408243	      0.00000000	     -2.68338933	     -1.48185599	      8.26340663	     10.51724503	      0.18356055	     35.59553700	     -6.27317711	      0.00000000	      0.05397416	      0.18127202	      4.94181261	      0.10023541	      0.24109178	      5.25067589	      0.08867414	      0.44074478	      5.25067589	      0.06168706	      0.44074478	      4.32408603	      0.05012040	      0.36964990	      4.01522274	      0.03084083	      0.28079035	      3.70635945	      0.38553201	      2.05058531	     27.48487917	      0.00000000	      0.00000000	     18.24866463	     -8.84884796	     -5.62242525	    -44.86180300	    -55.58302785	    -41.15385734	     77.70001790	     64.46442982	      7.54603767	     27.50493321	     32.91980829	    -38.49195136	    146.19811480	      0.47735103	      0.72519118	     64.48198661	    -24.34433618
      4.70212766	     -0.56843553	      0.17395244	    103.80006566	      0.04929010	      0.55238383	      0.74146458	     -4.35802324	      5.05980876	     -2.34172918	      8.95548665	      0.15630273	     35.70906143	     -3.76311748	      0.00000000	     -3.55256848	     -1.54957269	      7.71176639	     10.18046491	      0.17768263	     35.14216336	     -6.37917447	      0.00000000	      0.02214988	      0.25788357	      5.08165510	      0.04113455	      0.34298515	      5.39925854	      0.03639005	      0.62701811	      5.39925854	      0.02531510	      0.62701811	      4.44644821	      0.02056838	      0.52587617	      4.12884477	      0.01265644	      0.39946165	      3.81124132	      0.15821441	      2.91723051	     28.26264115	      0.00000000	      0.00000000	     18.47755630	    -10.40837206	     -6.89061831	    -39.79024985	    -55.39439791	    -35.71241478	     79.66633409	     80.03535771	     13.68151211	     24.37282855	     33.61794246	    -33.77545089	    150.62107726	      0.41394226	      0.61854612	     66.57799161	    -24.45536983
